<?xml version="1.0" standalone="no"?>
<!DOCTYPE svg PUBLIC "-//W3C//DTD SVG 20010904//EN"
 "http://www.w3.org/TR/2001/REC-SVG-20010904/DTD/svg10.dtd">
<svg version="1.0" xmlns="http://www.w3.org/2000/svg"
 width="200.000000pt" height="200.000000pt" viewBox="0 0 200.000000 200.000000"
 preserveAspectRatio="xMidYMid meet">
<metadata>
Created by potrace 1.11, written by Peter Selinger 2001-2013
</metadata>
<g transform="translate(0.000000,200.000000) scale(0.100000,-0.100000)"
fill="#000000" stroke="none">
<path d="M1392 1858 c-158 -333 -162 -340 -177 -328 -9 8 -29 10 -50 7 -19 -3
-35 -2 -35 2 0 5 -14 22 -32 39 -60 59 -166 50 -216 -18 -17 -22 -26 -26 -49
-22 -15 3 -39 13 -52 23 -31 25 -72 24 -104 -2 -19 -14 -31 -17 -44 -11 -31
17 -97 8 -132 -17 -34 -24 -61 -74 -61 -110 0 -13 -12 -26 -32 -36 -42 -19
-78 -73 -85 -124 -5 -38 -8 -40 -42 -43 -34 -3 -36 -5 -37 -38 -1 -39 22 -164
35 -195 5 -11 15 -36 22 -55 18 -51 84 -160 121 -201 50 -56 140 -124 191
-145 l46 -19 3 -70 3 -70 335 0 335 0 3 68 3 67 52 26 c188 96 319 288 357
527 15 93 11 107 -33 107 -31 0 -35 4 -46 40 -7 24 -25 51 -46 67 -19 16 -35
33 -35 39 0 22 -44 66 -81 83 l-39 16 86 124 c82 118 85 125 68 138 -53 40
-44 48 -195 -170 -3 -5 -20 0 -36 10 l-31 18 69 144 c38 79 69 145 69 146 0 5
-66 45 -73 45 -3 0 -19 -28 -35 -62z"/>
</g>
</svg>
